<svg width="100" height="100" viewBox="0 0 100 100" fill="none" xmlns="http://www.w3.org/2000/svg">
<circle cx="50" cy="50" r="50" fill="white"/>
<g clip-path="url(#clip0_1907_66)">
<path d="M65.7266 37.3345L57.3704 40.3304L50.0924 43.8484L48.0604 44.4385C47.542 44.9832 47.0029 45.5279 46.4016 46.0726C45.7588 46.6854 45.1575 47.2301 44.7013 47.6387C44.183 48.0926 43.4365 48.9097 43.0425 49.4317C42.462 50.2261 42.0058 51.0658 41.8192 51.7013C41.4667 52.8589 41.6326 54.0391 42.3168 55.1285C43.167 56.513 44.888 57.9202 46.8785 58.8734C47.8945 59.3727 49.6155 59.9856 50.9011 60.3487C53.0368 60.9388 57.1838 61.597 59.4646 61.6878C59.9208 61.7105 60.5428 61.7105 60.5636 61.6878C60.6051 61.6424 60.9783 60.9161 61.3722 59.9856C62.7822 56.8534 63.7775 53.9029 64.3373 51.4063C64.6691 49.8856 64.9179 47.8656 65.1045 45.4598C65.146 44.7789 65.1667 42.532 65.1253 41.783C65.0631 40.5347 64.9594 39.536 64.8142 38.5374C64.7935 38.4012 64.7728 38.265 64.7935 38.265C64.8142 38.2423 64.8972 38.2196 65.9339 37.9019L65.7266 37.3345ZM63.819 38.5601C63.9019 38.5601 64.0885 40.6936 64.1507 42.0326C64.1715 42.305 64.1507 42.5093 64.1507 42.5093C64.1093 42.5093 63.0932 41.8511 62.3468 41.3518C61.7247 40.9205 60.5221 40.0354 60.3355 39.8765C60.2733 39.8311 60.2733 39.8311 60.7917 39.6268C61.6625 39.2864 63.736 38.5601 63.819 38.5601ZM59.5476 40.1034C59.6098 40.1034 59.7549 40.1942 60.1074 40.4212C61.4137 41.3064 63.1762 42.3958 63.9434 42.7589C64.1715 42.8724 64.1922 42.827 63.6738 43.2356C62.5334 44.098 61.082 44.9378 59.3402 45.7776C59.0292 45.9364 58.7804 46.0499 58.7596 46.0499C58.7389 46.0499 58.7804 45.8684 58.8426 45.6641C59.2573 43.9391 59.5061 42.1915 59.5268 40.807C59.4854 40.1034 59.4854 40.1034 59.5476 40.1034ZM58.6767 40.4666C58.7182 40.512 58.6974 42.0553 58.6352 42.4866C58.5316 43.4852 58.3449 44.4385 58.0546 45.5052C57.9924 45.7549 57.9302 45.9818 57.9095 45.9818C57.8888 46.0272 57.0179 45.0967 56.7276 44.7335C56.23 44.1207 55.8567 43.4852 55.5665 42.8724C55.4213 42.5547 55.1932 41.9419 55.214 41.9419C55.3176 41.8511 58.656 40.4439 58.6767 40.4666ZM54.5504 42.2369C54.5919 42.2596 54.6334 42.3731 54.6541 42.4866C54.8615 43.0994 55.3176 43.9845 55.7116 44.5293C56.147 45.1421 56.7069 45.823 57.163 46.2542C57.3082 46.3904 57.4533 46.5265 57.4741 46.5492C57.5155 46.5946 57.5155 46.5946 56.4995 47.0032C55.2969 47.5025 54.0113 48.0018 52.5184 48.5238C52.1659 48.66 51.8134 48.7735 51.4609 48.9097C51.3987 48.9324 51.4195 48.887 51.5853 48.6146C52.3318 47.3436 53.4515 44.8697 54.0735 43.0994C54.1772 42.8043 54.2809 42.4866 54.3016 42.4185C54.3224 42.3277 54.3638 42.2823 54.4468 42.2369C54.4882 42.2596 54.5297 42.2369 54.5504 42.2369ZM53.2856 42.8043C53.3063 42.827 52.9746 43.5533 52.6636 44.2342C52.0415 45.5506 51.378 46.8216 50.4864 48.3877C50.3412 48.66 50.1961 48.9097 50.1754 48.9324C50.1339 48.9778 50.1339 48.9778 50.0302 48.7508C49.8229 48.2969 49.6363 47.6841 49.5533 47.1394C49.4496 46.5946 49.4704 45.6641 49.5948 45.074C49.6777 44.6427 49.6777 44.6427 49.8643 44.552C50.6315 44.1207 53.2441 42.7816 53.2856 42.8043ZM64.1715 43.3036V43.5987C64.1715 45.1421 64.0263 47.2528 63.7982 48.7962C63.7568 49.0686 63.736 49.2955 63.7153 49.2955C63.7153 49.2955 63.5287 49.2501 63.3213 49.182C62.3675 48.8643 61.3515 48.3877 60.4184 47.8202C59.7964 47.4571 58.9048 46.8443 58.9463 46.8216C58.9463 46.8216 59.2158 46.6627 59.5268 46.4812C60.7709 45.7776 61.9528 45.0059 62.9896 44.2569C63.3835 43.9845 63.9641 43.5079 64.0885 43.3944L64.1715 43.3036ZM48.5166 45.3463C48.5373 45.3463 48.5373 45.3917 48.4958 45.6414C48.4751 45.823 48.4336 46.1634 48.4336 46.3904C48.3922 47.389 48.5373 48.138 48.9935 49.1593C49.1179 49.4317 49.2216 49.6814 49.2216 49.6814C49.1801 49.7268 44.9916 51.0658 43.6853 51.4517C43.2914 51.5652 42.9596 51.6786 42.9181 51.6786C42.8767 51.7013 42.8767 51.6786 42.8767 51.5652C43.0218 50.5438 43.7268 49.2274 44.7221 48.0926C45.3856 47.3436 45.904 46.9124 46.7956 46.345C47.4383 45.9818 48.4129 45.369 48.5166 45.3463C48.4958 45.3463 48.4958 45.3463 48.5166 45.3463ZM58.3657 47.2755C58.3657 47.2755 58.5316 47.3663 58.6974 47.4798C60.0452 48.3423 61.9321 49.1366 63.5287 49.5452L63.6738 49.5906L63.4665 49.7041C62.6163 50.2261 59.8586 51.4744 57.0386 52.6319C56.6239 52.7908 56.23 52.9723 56.147 52.995C56.0641 53.0404 56.0019 53.0404 56.0019 53.0404C56.0019 53.0404 56.1056 52.7908 56.2507 52.4957C57.0386 50.8843 57.8266 48.9097 58.2413 47.5479C58.3242 47.389 58.3657 47.2755 58.3657 47.2755ZM57.3704 47.6387C57.3704 47.6387 57.3289 47.7975 57.2667 47.9564C56.7069 49.409 56.0019 50.9978 55.0688 52.7908C54.8407 53.2447 54.6334 53.6078 54.6334 53.6078C54.6334 53.6078 54.4468 53.4944 54.2187 53.3355C52.8709 52.4276 51.689 51.3382 50.9218 50.2488L50.8182 50.0899L51.3987 49.9083C53.4515 49.2955 55.214 48.6373 56.9557 47.8202C57.1423 47.7295 57.3497 47.6387 57.3704 47.6387ZM63.6116 50.0218C63.6116 50.1807 63.3006 51.6106 63.031 52.6319C62.803 53.4944 62.6163 54.1753 62.2638 55.3782C62.1187 55.9002 61.9736 56.3314 61.9736 56.3314C61.9736 56.3314 61.9321 56.3314 61.8906 56.3087C60.0245 55.9456 58.3242 55.4236 56.7483 54.72C56.3129 54.5157 55.6701 54.2207 55.6287 54.1753C55.6079 54.1526 56.0019 53.971 56.4788 53.744C59.361 52.3595 62.3261 50.8162 63.3628 50.1353C63.4872 50.0672 63.5909 50.0218 63.6116 50.0218ZM49.2008 50.5665C49.2216 50.5892 48.4129 51.8375 47.2932 53.5625C46.8992 54.1753 46.4431 54.8788 46.2772 55.1285C46.1113 55.4009 45.8418 55.8094 45.6966 56.0591L45.4271 56.513L45.1368 56.2406C44.805 55.9456 44.2244 55.2874 43.9549 54.9242C43.4158 54.1753 43.0425 53.4036 42.8974 52.7C42.8352 52.3595 42.8352 52.2007 42.8974 52.178C43.0011 52.1553 44.6806 51.724 46.2565 51.3155C47.1273 51.0885 48.1433 50.8389 48.5166 50.7254C48.8898 50.6346 49.1801 50.5665 49.2008 50.5665ZM50.0095 50.907L50.2168 51.1566C51.1292 52.2688 52.0622 53.0858 53.1819 53.8121C53.3893 53.9256 53.5344 54.0391 53.5137 54.0618C53.4722 54.1072 49.6155 55.6051 47.8116 56.2633C46.8163 56.6492 45.9869 56.9669 45.9662 56.9669L45.8418 56.8761L45.7381 56.7854L45.9247 56.4903C46.526 55.5597 47.2725 54.5157 48.8898 52.3822L50.0095 50.907ZM55.0481 54.8562C55.0481 54.8562 55.3384 54.9696 55.6701 55.1058C56.4995 55.4463 57.1423 55.6505 58.0132 55.9002C59.0914 56.1952 60.6465 56.4903 61.5589 56.5811C61.704 56.6038 61.7662 56.6038 61.7455 56.6265C61.704 56.6492 60.7709 56.9896 60.0867 57.2393C59.0085 57.6024 55.6909 58.6919 52.9746 59.5316C52.4769 59.6905 52.0415 59.8267 52.0208 59.8267C51.9586 59.8494 51.7512 59.7813 51.7512 59.7586C51.7512 59.7359 51.8964 59.5316 52.083 59.3047C52.9953 58.1244 53.8869 56.7854 54.6541 55.537C54.8615 55.1285 55.0481 54.8562 55.0481 54.8562ZM53.9284 54.8789C53.9284 54.8789 53.493 55.6732 52.705 57.035C52.3733 57.6024 52 58.2606 51.8549 58.4876C51.7305 58.7146 51.5439 59.055 51.4402 59.2593L51.2536 59.6224L51.1499 59.5997C50.9218 59.5316 49.3252 58.9188 48.9105 58.7373C48.3922 58.5103 47.8531 58.2379 47.4384 57.9883C46.9407 57.6932 46.2979 57.2393 46.3601 57.2393C46.3809 57.2393 47.231 56.9669 48.2885 56.6719C51.0462 55.8548 52.5806 55.3782 53.5966 55.015C53.7625 54.9242 53.9284 54.8789 53.9284 54.8789ZM61.7869 56.8988C61.8284 56.9669 60.7917 60.0763 60.4184 61.0523C60.3355 61.2793 60.3148 61.3247 60.2526 61.3247C60.1489 61.3247 58.656 61.0977 57.7644 60.9388C56.1885 60.6664 53.5552 60.1671 52.8916 60.0083L52.7465 59.9629L53.6796 59.7359C55.7116 59.2366 56.6654 58.9642 57.6607 58.6465C58.9048 58.2379 60.1281 57.7159 61.3722 57.0804C61.5796 56.9896 61.7455 56.8988 61.7869 56.8988Z" fill="black"/>
<path d="M57.1007 16.0229C56.9555 16.0002 54.7162 16.8854 53.2647 17.5209C51.3156 18.3833 49.802 19.2231 48.8689 19.9494C48.5164 20.2217 48.081 20.6984 48.0188 20.8799C47.998 20.948 47.9773 21.0388 47.9773 21.1069L48.8274 21.9921L50.8387 22.6957L55.6285 23.6262L61.1025 24.6475L61.1647 24.1255H61.1233L60.3975 24.012L60.2524 23.7397C59.5059 22.3098 58.6765 20.5168 58.1996 19.3139C57.8264 18.3833 57.4739 17.2939 57.2873 16.5222C57.1836 16.0456 57.1629 16.0229 57.1007 16.0229ZM56.997 16.3633C57.0177 16.3633 57.0385 16.5676 57.0592 16.7946C57.1629 17.7705 57.3702 18.7011 57.6813 19.6997C57.9093 20.4714 57.9093 20.426 57.6398 20.3352C56.997 20.131 54.1148 19.5862 52.0206 19.2685C51.6889 19.2231 51.3986 19.1777 51.3986 19.155C51.3778 19.1323 52.9122 18.2471 53.5757 17.9067C54.4466 17.4755 56.8311 16.4087 56.997 16.3633ZM50.9009 19.4728L51.1497 19.5635C52.4975 20.0629 55.8566 20.7665 57.7227 20.9253C57.9301 20.948 58.1167 20.9707 58.1167 20.9707C58.1167 20.9707 57.9508 21.0842 57.7227 21.1977C56.8311 21.697 55.8358 22.2871 55.1516 22.7637C54.9442 22.8999 54.7576 23.0134 54.7369 23.0134C54.7162 23.0134 54.571 22.9907 54.4466 22.968L54.1978 22.9226L53.5757 22.2417C52.456 21.0615 51.5852 20.1536 51.2534 19.7905L50.9009 19.4728ZM50.6521 19.677L51.5437 20.9026C52.0206 21.5835 52.5183 22.219 52.6219 22.3779C52.7256 22.5141 52.8085 22.6503 52.8085 22.6503C52.7878 22.673 51.523 22.4006 50.8595 22.2417C50.1752 22.0601 49.8849 21.9921 49.4702 21.8332L49.1177 21.7197V21.6289C49.1177 21.175 49.6568 20.4714 50.5692 19.7678L50.6521 19.677ZM58.2204 21.3339C58.2411 21.3339 58.2826 21.402 58.3448 21.5835C58.5521 22.1055 59.2364 23.49 59.4023 23.7624C59.4437 23.8532 59.5474 23.8532 58.6558 23.6943C56.5201 23.3085 55.8358 23.195 55.8358 23.1723C55.8358 23.1723 55.8981 23.1269 55.981 23.0588C56.6445 22.6503 57.308 22.1509 57.9093 21.6062C58.0545 21.47 58.1789 21.3566 58.2204 21.3339Z" fill="black"/>
<path d="M48.0603 20.7661C48.0603 20.7661 47.9151 21.0158 48.0603 21.3789C48.1432 21.6059 48.392 21.8782 48.6616 22.1506C48.6616 22.1506 51.4816 25.1465 51.8133 25.5778C53.3684 27.5524 54.0527 29.4816 54.1149 32.137C54.1564 33.862 53.8661 35.3599 53.1196 37.1076C51.8133 40.2397 49.0348 43.7123 44.7634 47.548L45.3855 47.321C45.7794 46.9805 46.3393 46.6401 47.6249 45.8684C50.6107 44.0754 53.949 42.4412 58.0545 40.7617C63.964 38.3332 73.6887 35.4734 79.2249 34.5429L79.8055 34.4521L79.7226 34.2932C79.2249 33.4307 78.8724 32.9087 78.4577 32.3413C77.2551 30.6845 75.7829 29.3681 73.979 28.2559C71.5115 26.7353 68.2976 25.5551 64.2336 24.6699C63.4664 24.511 61.7868 24.1933 60.4183 23.9663C57.5154 23.467 55.6493 23.1265 53.5965 22.7407C52.8501 22.6045 51.7511 22.4003 51.0254 22.2187C50.6522 22.1279 49.9264 21.9463 49.3459 21.7194C48.8482 21.5605 48.2054 21.3562 48.0603 20.7661ZM49.6983 22.5137C49.6983 22.5137 49.802 22.5591 49.9472 22.6045C50.196 22.6953 50.507 22.8088 50.8595 22.8996C51.1291 22.9904 51.4194 23.0585 51.6889 23.1492C52.0621 23.2627 52.3939 23.3535 52.3939 23.3535C52.4354 23.3989 53.0781 25.6459 53.2855 26.4856C53.3684 26.8034 53.4306 27.0984 53.4306 27.0984C53.4306 27.0984 53.3477 26.9849 53.2648 26.8261C52.5183 25.3962 51.3571 23.9663 50.0094 22.7861C49.8228 22.6272 49.6983 22.5137 49.6983 22.5137ZM52.8086 23.4443C52.8501 23.4443 52.9745 23.467 53.1404 23.5124C54.2186 23.7847 56.1469 24.1706 57.3703 24.3975C57.5776 24.4429 57.7435 24.4656 57.7435 24.4883C57.7435 24.511 57.6606 24.5564 57.5776 24.6018C57.3703 24.7153 56.5201 25.26 56.2506 25.4643C55.5456 25.9863 54.9236 26.531 54.4674 27.0303L54.1356 27.3935C54.1356 27.3935 54.0942 27.28 54.0734 27.1211C53.8453 26.1679 53.3684 24.738 52.933 23.7394C52.8501 23.6032 52.7879 23.4443 52.8086 23.4443C52.7879 23.4443 52.7879 23.4443 52.8086 23.4443ZM58.2619 24.5791C58.3034 24.6018 58.3656 24.8288 58.49 25.3508C58.7181 26.3494 58.8217 27.4843 58.801 28.5283C58.7803 28.8234 58.7803 29.0957 58.7595 29.1184L58.7388 29.1865L58.407 29.073C57.7228 28.8461 56.6238 28.4829 55.6908 28.1879C55.1516 28.029 54.7162 27.8928 54.7162 27.8701C54.7162 27.8247 55.5041 26.9623 55.8359 26.6445C56.4787 26.0317 58.2204 24.5564 58.2619 24.5791ZM58.6973 24.6472C58.7181 24.6245 61.3099 25.1238 62.4918 25.3735C63.3627 25.5551 64.6483 25.8501 64.7312 25.8955C64.7727 25.9182 64.6275 25.9863 64.2128 26.1906C62.554 27.0076 61.3099 27.7566 60.0658 28.6418C59.7341 28.8688 59.4645 29.073 59.4645 29.073C59.4645 29.073 59.4438 28.8688 59.4438 28.6418C59.4438 27.3254 59.195 26.009 58.7595 24.8742C58.7388 24.7607 58.6973 24.6699 58.6973 24.6472ZM65.4154 26.0998C65.4362 26.1225 65.3532 26.6899 65.2703 27.0076C65.0422 28.029 64.4202 29.5723 63.6737 31.0022C63.5493 31.2519 63.4249 31.4562 63.4042 31.4789C63.3834 31.4789 63.2175 31.3881 63.0309 31.2519C62.3052 30.7753 61.4551 30.344 60.5635 29.9355C60.3146 29.822 60.0866 29.7312 60.0866 29.7085C60.0451 29.6631 62.0771 28.1879 63.1553 27.4843C64.0055 26.9169 65.3947 26.0771 65.4154 26.0998ZM65.8923 26.1906C65.9546 26.1906 67.095 26.531 67.6963 26.7353C69.1892 27.2119 70.8895 27.8928 71.9884 28.4602L72.4446 28.6872L72.1128 28.778C69.3966 29.4589 67.0742 30.2532 64.8349 31.2519C64.6483 31.3427 64.4824 31.4108 64.4824 31.4108C64.4616 31.4108 64.5238 31.2519 64.6068 31.0476C65.291 29.4816 65.7265 27.8474 65.8301 26.4402C65.8716 26.3041 65.8923 26.1906 65.8923 26.1906ZM54.4467 29.073C54.4674 29.0503 55.3383 29.2773 55.8152 29.4362C56.5409 29.6631 58.0545 30.2078 58.0545 30.2532C58.0545 30.2532 57.8887 30.4121 57.6813 30.6164C56.8519 31.3654 56.064 32.1597 55.1102 33.1811C54.8199 33.4761 54.5918 33.7258 54.5711 33.7258C54.5503 33.7258 54.5503 33.6804 54.5503 33.635C54.6955 32.4775 54.654 30.9795 54.4674 29.4589C54.4674 29.2319 54.4467 29.073 54.4467 29.073ZM72.9008 29.0957C72.9215 29.1184 72.4861 29.822 72.2372 30.2305C71.864 30.8207 71.3042 31.615 70.0393 33.34C69.3758 34.2478 68.6294 35.2919 68.3805 35.6323C68.1317 35.9728 67.9244 36.2678 67.9036 36.2678C67.9036 36.2678 67.8207 36.1543 67.717 35.9954C67.012 34.8379 66.1619 33.8166 65.1666 32.9087C64.98 32.7272 64.7727 32.5456 64.6897 32.5002C64.6275 32.4548 64.5653 32.3867 64.5653 32.3867C64.5653 32.364 65.6435 31.8647 66.4522 31.5015C67.8829 30.866 69.832 30.0944 71.2834 29.6177C72.0714 29.3227 72.9008 29.073 72.9008 29.0957ZM73.3984 29.2319C73.4191 29.2319 73.585 29.3 73.7509 29.4362C75.2853 30.3894 76.7989 31.6377 77.9808 32.9087C78.3126 33.2719 79.142 34.2024 79.1213 34.2251C79.1213 34.2251 78.831 34.2478 78.4992 34.2705C75.8451 34.4975 72.4446 35.1103 69.1685 35.9728C68.9404 36.0181 68.7538 36.0862 68.733 36.0862C68.7123 36.0862 68.9611 35.8139 69.2722 35.4961C71.2005 33.4761 72.0714 32.1824 73.1081 29.9128C73.2533 29.527 73.3777 29.2546 73.3984 29.2319C73.3777 29.2319 73.3777 29.2319 73.3984 29.2319ZM59.3194 30.798C59.4023 30.8207 60.2317 31.2519 60.8538 31.5696C61.4136 31.8874 62.2845 32.3867 62.3259 32.4094C62.3259 32.4094 62.0356 32.591 61.6624 32.7952C60.4805 33.4534 59.4645 34.0662 58.3863 34.7698C58.0753 34.9741 57.8265 35.133 57.8265 35.133C57.8057 35.133 57.8057 35.1103 57.9716 34.7698C58.5314 33.635 58.9876 32.2732 59.2572 30.9568C59.2779 30.866 59.2986 30.798 59.3194 30.798ZM58.5107 30.9795C58.5314 31.0022 58.3241 31.842 58.1789 32.3186C57.9301 33.2038 57.474 34.2932 57.0593 35.133C56.9556 35.3373 56.8104 35.6096 56.7275 35.7685L56.5616 36.0408L56.2091 35.6777C55.7944 35.2465 55.4627 34.9741 55.0272 34.7244C54.8614 34.6337 54.7162 34.5429 54.7162 34.5202C54.7162 34.4748 55.7944 33.3854 56.6238 32.6137C57.2251 32.0463 58.49 30.9568 58.5107 30.9795ZM63.5286 33.2265L63.8396 33.4534C64.5446 33.9528 65.374 34.6337 66.0168 35.2238C66.3693 35.5415 67.0742 36.2224 67.2194 36.404L67.3023 36.4948L66.784 36.6536C63.8811 37.5388 61.6624 38.3105 59.0498 39.3545C58.7595 39.468 58.5107 39.5588 58.49 39.5588C58.4485 39.5588 58.4278 39.6042 59.0705 38.946C60.7293 37.2665 62.2223 35.4053 63.3212 33.6123L63.5286 33.2265ZM62.2015 33.5896C62.2223 33.6123 61.3514 34.9287 60.833 35.7004C60.211 36.6083 59.112 38.1062 58.3656 39.0822C58.0545 39.4907 57.785 39.8312 57.7642 39.8312C57.7435 39.8312 57.7435 39.7404 57.7435 39.5815C57.7435 38.7417 57.5569 37.8566 57.2044 37.0849C57.0593 36.7671 57.0385 36.699 57.0593 36.6536C57.1837 36.5402 59.0083 35.3826 60.1902 34.7018C60.9574 34.2478 62.1808 33.5669 62.2015 33.5896ZM54.2186 35.7231C54.2393 35.7231 54.3845 35.8139 54.5503 35.9047C54.9443 36.1543 55.3175 36.4267 55.6285 36.699C55.6493 36.7217 55.4834 36.8579 55.2553 37.0395C54.654 37.5161 53.7417 38.2651 53.2233 38.719C52.6634 39.1957 52.6427 39.2183 52.7049 39.1049C53.1196 38.4013 53.327 38.0154 53.555 37.5161C53.7417 37.0622 53.949 36.5402 54.0942 36.0635C54.1356 35.882 54.1978 35.7231 54.2186 35.7231ZM56.3543 37.5615C56.3957 37.5615 56.4165 37.6069 56.6031 37.902C56.9556 38.4921 57.2459 39.2864 57.3081 39.9219L57.3288 40.0581L56.4579 40.4213C54.9028 41.0795 53.4721 41.7377 52.5183 42.2143C52.2487 42.3505 51.7718 42.6001 51.4608 42.759C51.1498 42.9406 50.901 43.0541 50.901 43.0541C50.901 43.0541 51.0876 42.8952 51.3364 42.6909C53.2233 41.1929 54.8614 39.5361 56.0847 37.902C56.2091 37.7204 56.3335 37.5615 56.3543 37.5615ZM55.3797 37.8112C55.4005 37.8339 54.6747 38.7417 54.1978 39.2864C52.9745 40.6482 51.7718 41.715 50.2789 42.759C50.0923 42.8952 49.9264 43.0087 49.9057 43.0314C49.8642 43.0541 49.9264 42.986 50.5692 42.2143C50.9839 41.715 51.2949 41.3064 51.6682 40.8071C51.917 40.4667 51.9585 40.4213 52.2902 40.1489C53.2026 39.3772 55.3383 37.7885 55.3797 37.8112Z" fill="black"/>
<path d="M28.0095 66.4544C27.8851 66.4544 27.7815 66.4771 27.657 66.4771C25.2933 66.6133 23.7174 67.7481 22.7843 69.9724C21.9964 71.9697 22.0793 74.6025 22.7843 76.5998C23.6137 78.5744 24.9615 79.6184 27.2009 80.0042C27.6778 80.095 27.9888 80.3674 28.9219 81.5476L30.0623 83.0002H32.1151L30.7466 81.5022C30.0001 80.6851 29.378 79.9588 29.378 79.8908C29.378 79.8227 29.6683 79.6865 30.0208 79.573C31.182 79.1872 32.1358 78.2112 32.7993 76.7132C33.3384 75.5103 33.4214 75.1472 33.5043 73.6492C33.7117 69.2007 31.576 66.4317 28.0095 66.4544ZM29.8135 78.075C28.8182 78.5971 27.3668 78.7105 26.4129 78.3247C25.4384 77.9389 24.4846 76.8267 24.0492 75.5557C23.5723 74.1712 23.6345 71.6292 24.1943 70.4944C25.0652 68.6787 26.2263 67.8389 27.9059 67.8389C30.3941 67.8389 31.8248 69.5185 32.0114 72.6506C32.1565 75.2834 31.3479 77.258 29.8135 78.075ZM65.291 70.2448C64.4201 70.2448 63.7773 70.6306 63.3212 71.3796L62.9687 71.9697V70.4263H61.4758V79.7092H62.9687V76.7359C62.9687 74.0124 62.9894 73.6946 63.3419 72.9683C63.8188 71.947 64.6482 71.4477 65.4361 71.6746L65.9752 71.8335V70.2221L65.291 70.2448ZM56.5408 70.154C56.2506 70.154 55.9395 70.1994 55.6285 70.2674C53.6379 70.8349 52.5183 72.9229 52.5805 75.0791C52.5805 76.8721 52.8915 77.78 53.7002 78.7332C55.3175 80.1858 56.7897 80.2993 58.7802 79.5276C59.112 79.3687 59.4852 79.1872 59.4852 79.1872V77.7346L58.7802 78.1431C57.1836 78.9148 55.9603 78.9148 54.9857 78.0069C54.3637 77.3261 54.0941 76.4863 53.9697 75.5557H59.9828V74.3074C59.9828 71.7427 58.5729 70.1313 56.5408 70.154ZM54.1149 74.2393C54.1149 74.2393 54.3429 72.6506 55.1516 72.0151C55.5456 71.72 56.0017 71.5611 56.4579 71.5611C56.9141 71.5611 57.3495 71.72 57.7227 72.0378C58.4692 72.6733 58.6143 74.2393 58.6143 74.2393H54.1149ZM18.1604 72.5598C16.5431 71.4931 15.8174 70.7214 15.9211 69.8135C16.1699 67.2942 19.0106 67.6347 20.5864 68.5879L20.6072 66.8857C20.6072 66.8857 19.7363 66.4771 18.4922 66.4544C16.5846 66.4317 15.3405 67.1126 14.7599 68.5198C13.9098 70.5852 14.6562 72.1513 17.3932 73.8762C18.9276 74.8521 19.6119 75.6919 19.6119 76.6225C19.6119 78.529 17.5177 79.1872 15.3405 78.0069C14.8843 77.7573 14.5111 77.553 14.4903 77.553C14.4074 78.0977 14.4489 79.3914 14.4489 79.3914C14.4489 79.3914 15.1124 79.6865 16.1077 79.9135C18.5959 80.4582 20.8352 79.1872 21.0633 77.1218C21.2292 75.1699 20.5864 74.1485 18.1604 72.5598ZM78.4992 70.154C78.2089 70.154 77.8979 70.1994 77.5868 70.2674C75.5963 70.8349 74.4766 72.9229 74.5388 75.0791C74.5388 76.8721 74.8498 77.78 75.6585 78.7105C77.2758 80.1631 78.748 80.2993 80.7593 79.5049C81.091 79.346 81.4643 79.1645 81.4643 79.1645V77.7119L80.7593 78.1204C79.1419 78.8921 77.9393 78.8921 76.9648 77.9842C76.3427 77.3034 76.0732 76.4863 75.9488 75.533H81.9412V74.2847C81.9412 71.72 80.5312 70.1086 78.4992 70.154ZM76.0524 74.2166C76.0524 74.2166 76.2805 72.6279 77.0892 71.9924C77.4831 71.6746 77.9393 71.5385 78.3748 71.5385C78.8102 71.5385 79.2664 71.6973 79.6396 72.0151C80.386 72.6506 80.5312 74.2166 80.5312 74.2166H76.0524ZM48.7238 72.5825C47.1064 71.5158 46.4014 70.7441 46.4844 69.8362C46.7332 67.3169 49.5739 67.6574 51.1498 68.6106L51.1705 66.9084C51.1705 66.9084 50.2996 66.4998 49.0555 66.4771C47.1479 66.4544 45.9038 67.1353 45.3232 68.5425C44.4731 70.6079 45.2403 72.174 47.9566 73.8989C49.491 74.8748 50.1545 75.7146 50.1545 76.6225C50.1545 78.529 48.0602 79.2099 45.8831 78.0069C45.4476 77.7573 45.0537 77.553 45.0329 77.553C44.95 78.0977 44.9915 79.3914 44.9915 79.3914C44.9915 79.3914 45.655 79.6865 46.6503 79.9135C49.1385 80.4582 51.3778 79.1872 51.6059 77.1218C51.7925 75.1926 51.1498 74.1712 48.7238 72.5825ZM87.2493 70.2221C86.3784 70.2221 85.7149 70.6079 85.2795 71.3569L84.927 71.947V70.4036H83.4341V79.6865H84.927V76.7359C84.927 74.0124 84.9477 73.6946 85.3002 72.9683C85.7771 71.947 86.6065 71.4477 87.3945 71.6973L87.9336 71.8562V70.2448L87.2493 70.2221ZM36.8634 72.5371V66.6133H35.3705V79.7092H41.6946V78.1658H36.8841L36.8634 72.5371ZM71.6359 74.3755L70.3918 77.8935L69.2099 74.3528L68.0073 70.4263H66.4729C67.4682 73.513 68.5464 76.6679 69.6453 79.7092C70.1222 79.7319 70.5991 79.7092 71.076 79.7092L72.7556 75.1018L74.4558 70.4036H72.9837C72.9629 70.4263 72.3201 72.2874 71.6359 74.3755ZM40.3468 63.05C40.5957 63.05 40.7823 62.9592 40.9482 62.7776C41.114 62.596 41.197 62.3918 41.197 62.1194C41.197 61.8471 41.114 61.6428 40.9482 61.4612C40.7823 61.3023 40.5957 61.2116 40.3468 61.2116C40.098 61.2116 39.8907 61.3023 39.7455 61.4839C39.5796 61.6655 39.4967 61.8925 39.4967 62.1421C39.4967 62.4145 39.5796 62.6414 39.7455 62.8003C39.8907 62.9592 40.098 63.05 40.3468 63.05ZM39.8077 61.5293C39.9529 61.3704 40.1188 61.3023 40.3468 61.3023C40.5542 61.3023 40.7408 61.3704 40.8859 61.5293C41.0311 61.6882 41.114 61.8698 41.114 62.1194C41.114 62.3464 41.0311 62.5506 40.8859 62.7095C40.7408 62.8684 40.5542 62.9365 40.3468 62.9365C40.1395 62.9365 39.9529 62.8684 39.8077 62.7095C39.6626 62.5506 39.5796 62.3464 39.5796 62.1194C39.6004 61.8924 39.6626 61.6882 39.8077 61.5293ZM40.1602 62.2102H40.2639C40.3261 62.2102 40.409 62.2783 40.4505 62.4145L40.5749 62.7095H40.7615L40.6164 62.3918C40.5542 62.2556 40.492 62.1875 40.4298 62.1648C40.5127 62.1421 40.5749 62.1194 40.6371 62.0513C40.6786 62.0059 40.6993 61.9151 40.6993 61.8471C40.6993 61.7563 40.6786 61.6882 40.6164 61.6201C40.5542 61.552 40.4505 61.5293 40.3054 61.5293H39.9943V62.7095H40.1395L40.1602 62.2102ZM40.1602 61.6655H40.3054C40.409 61.6655 40.4712 61.6882 40.5127 61.7109C40.5542 61.7336 40.5542 61.779 40.5542 61.8698C40.5542 62.0059 40.4713 62.074 40.3261 62.074H40.1602V61.6655ZM15.3405 62.0967C15.3405 61.6882 15.3197 61.3704 15.3197 61.1889C15.3612 61.3931 15.4027 61.552 15.4442 61.6655L16.8956 65.1834H17.1444L18.5959 61.6201C18.6373 61.5293 18.6788 61.3704 18.7203 61.1662H18.741C18.7203 61.5293 18.6995 61.8244 18.6995 62.074V65.1834H19.1972V60.5534H18.5751L17.2274 63.799C17.1859 63.9351 17.103 64.1167 17.02 64.3664H16.9993C16.9785 64.2302 16.8956 64.0486 16.8127 63.8217L15.5064 60.5761H14.8428V65.2061H15.3197L15.3405 62.0967ZM20.2547 62.1194H20.6901V65.0019H20.2547V62.1194ZM20.462 61.0527C20.545 61.0527 20.6279 61.03 20.6901 60.9619C20.7523 60.8938 20.7938 60.8257 20.7938 60.7122C20.7938 60.6214 20.773 60.5307 20.6901 60.4626C20.6279 60.3945 20.545 60.3718 20.462 60.3718C20.3791 60.3718 20.2961 60.3945 20.2339 60.4626C20.1717 60.5307 20.1303 60.6214 20.1303 60.7122C20.1303 60.8257 20.151 60.8938 20.2339 60.9619C20.2961 61.03 20.3791 61.0527 20.462 61.0527ZM23.7174 65.0473V64.5479C23.4893 64.7295 23.2405 64.843 22.9709 64.843C22.6599 64.843 22.4111 64.7295 22.2245 64.5025C22.0379 64.2756 21.9342 63.9805 21.9342 63.5947C21.9342 63.1861 22.0379 62.8684 22.2245 62.6414C22.4111 62.4145 22.6807 62.301 22.9709 62.301C23.2198 62.301 23.4686 62.3918 23.6967 62.5506V61.9832C23.4893 61.8698 23.2612 61.8244 22.9917 61.8244C22.5148 61.8244 22.1208 61.9832 21.8513 62.3237C21.5817 62.6414 21.4366 63.0954 21.4366 63.6401C21.4366 64.1167 21.561 64.5252 21.8305 64.8203C22.1001 65.138 22.4526 65.2969 22.8673 65.2969C23.2198 65.2742 23.4893 65.2061 23.7174 65.0473ZM24.9408 63.5266C24.9408 63.1408 25.0237 62.8457 25.1689 62.6187C25.314 62.4372 25.4591 62.3237 25.6665 62.3237C25.8324 62.3237 25.9568 62.3464 26.0397 62.4372V61.8924C25.9775 61.8698 25.8738 61.8471 25.7494 61.8471C25.5835 61.8471 25.4177 61.9151 25.2933 62.0286C25.1481 62.1648 25.0237 62.3464 24.9615 62.596H24.9408V61.9151H24.4639V65.2288H24.9408V63.5266ZM27.7192 65.2742C28.1754 65.2742 28.5486 65.1153 28.8182 64.7976C29.0878 64.4798 29.2329 64.0486 29.2329 63.5266C29.2329 62.9819 29.1085 62.5733 28.8597 62.2556C28.6109 61.9378 28.2584 61.8017 27.8022 61.8017C27.346 61.8017 26.9728 61.9605 26.7032 62.2329C26.4129 62.5506 26.2678 63.0046 26.2678 63.572C26.2678 64.0713 26.3922 64.4798 26.6618 64.7976C26.9106 65.1153 27.2631 65.2742 27.7192 65.2742ZM27.035 62.596C27.2216 62.3918 27.4704 62.2783 27.7607 62.2783C28.0717 62.2783 28.2998 62.3918 28.4864 62.596C28.6523 62.823 28.756 63.1408 28.756 63.5493C28.756 63.9578 28.6731 64.2756 28.5072 64.4798C28.3413 64.7068 28.0925 64.8203 27.7815 64.8203C27.4704 64.8203 27.2216 64.7068 27.035 64.4798C26.8484 64.2529 26.7654 63.9578 26.7654 63.5493C26.7447 63.1408 26.8276 62.823 27.035 62.596ZM31.3271 65.0019C31.5137 64.8203 31.6174 64.5933 31.6174 64.321C31.6174 64.0713 31.5345 63.867 31.3893 63.7082C31.2649 63.572 31.099 63.4585 30.8295 63.345C30.6014 63.2315 30.4563 63.1408 30.3733 63.0727C30.2904 62.9819 30.2489 62.8911 30.2489 62.7322C30.2489 62.596 30.2904 62.4826 30.3941 62.4145C30.4977 62.3237 30.6221 62.2783 30.788 62.2783C31.0576 62.2783 31.2649 62.3464 31.4723 62.5053V61.9832C31.2857 61.8698 31.0576 61.8244 30.8295 61.8244C30.5185 61.8244 30.2489 61.9151 30.0623 62.0967C29.855 62.2783 29.772 62.5053 29.772 62.7776C29.772 63.0273 29.8342 63.2315 29.9586 63.3677C30.0623 63.5039 30.2489 63.6174 30.4977 63.7309C30.7466 63.8443 30.9124 63.9578 30.9954 64.0486C31.0783 64.1394 31.1198 64.2302 31.1198 64.3664C31.1198 64.6841 30.9332 64.843 30.5392 64.843C30.2489 64.843 29.9794 64.7295 29.7513 64.5252V65.0927C29.9586 65.2288 30.2074 65.2969 30.4977 65.2969C30.8502 65.2742 31.1405 65.1834 31.3271 65.0019ZM33.6287 61.8244C33.1725 61.8244 32.7993 61.9832 32.5298 62.2556C32.2395 62.5733 32.0943 63.0273 32.0943 63.5947C32.0943 64.094 32.2187 64.5025 32.4883 64.8203C32.7578 65.138 33.1103 65.2969 33.5665 65.2969C34.0227 65.2969 34.3959 65.138 34.6655 64.8203C34.935 64.5025 35.0802 64.0713 35.0802 63.5493C35.0802 63.0046 34.9557 62.596 34.7069 62.2783C34.4374 61.9605 34.0849 61.8244 33.6287 61.8244ZM34.5825 63.5493C34.5825 63.9578 34.4996 64.2756 34.3337 64.4798C34.1678 64.7068 33.919 64.8203 33.608 64.8203C33.297 64.8203 33.0481 64.7068 32.8615 64.4798C32.6749 64.2529 32.592 63.9578 32.592 63.5493C32.592 63.1181 32.6956 62.8003 32.8823 62.5733C33.0689 62.3691 33.3177 62.2556 33.608 62.2556C33.8983 62.2556 34.1471 62.3691 34.313 62.5733C34.4996 62.8003 34.5825 63.1181 34.5825 63.5493ZM35.8888 65.2061H36.3657V62.3464H37.0707V61.8924H36.3657V61.3931C36.3657 60.9392 36.5316 60.6895 36.8634 60.6895C36.9878 60.6895 37.0915 60.7122 37.1744 60.7803V60.3037C37.0915 60.2583 36.967 60.2583 36.8219 60.2583C36.5523 60.2583 36.345 60.3491 36.1791 60.5307C35.9718 60.7349 35.8681 61.0073 35.8681 61.3931V61.9378H35.3497V62.3918H35.8681L35.8888 65.2061ZM37.8794 64.2983C37.8794 64.9338 38.1489 65.2742 38.6673 65.2742C38.8539 65.2742 38.9991 65.2515 39.1235 65.1607V64.7068C39.0405 64.7749 38.9369 64.8203 38.8125 64.8203C38.6466 64.8203 38.5429 64.7749 38.46 64.6841C38.3978 64.5933 38.3563 64.4345 38.3563 64.2075V62.3464H39.1235V61.8924H38.3563V60.9165C38.1904 60.9846 38.0245 61.03 37.8794 61.0754V61.8698H37.361V62.3237H37.8794V64.2983ZM89.8205 70.4036C89.6546 70.2448 89.468 70.154 89.2191 70.154C88.9703 70.154 88.763 70.2448 88.6178 70.4263C88.4519 70.6079 88.369 70.8349 88.369 71.0845C88.369 71.3569 88.4519 71.5611 88.6178 71.7427C88.7837 71.9016 88.991 71.9924 89.2191 71.9924C89.468 71.9924 89.6546 71.9016 89.8205 71.72C89.9863 71.5384 90.0693 71.3342 90.0693 71.0618C90.09 70.7895 89.9863 70.5625 89.8205 70.4036ZM89.7582 71.6519C89.6131 71.8108 89.4472 71.8789 89.2191 71.8789C89.0118 71.8789 88.8252 71.8108 88.68 71.6519C88.5349 71.4931 88.4519 71.2888 88.4519 71.0618C88.4519 70.8349 88.5141 70.6306 88.6593 70.4717C88.8044 70.3128 88.9703 70.2448 89.1984 70.2448C89.4058 70.2448 89.5924 70.3128 89.7375 70.4717C89.8827 70.6306 89.9656 70.8349 89.9656 71.0618C89.9656 71.2888 89.9034 71.4931 89.7582 71.6519ZM89.3228 71.1072C89.4057 71.0845 89.468 71.0391 89.5302 70.9937C89.5716 70.9483 89.5924 70.8576 89.5924 70.7895C89.5924 70.6987 89.5716 70.6306 89.5094 70.5625C89.4472 70.4944 89.3435 70.4717 89.1984 70.4717H88.8874V71.6519H89.0325V71.1526H89.1362C89.1984 71.1526 89.2606 71.2207 89.3228 71.3569L89.4472 71.6519H89.6338L89.4887 71.3342C89.4265 71.198 89.3643 71.1299 89.3228 71.1072ZM89.2191 70.9937H89.0533V70.6079H89.1984C89.3021 70.6079 89.3643 70.6306 89.4058 70.6533C89.4472 70.676 89.4472 70.7214 89.4472 70.8122C89.4265 70.9483 89.3643 70.9937 89.2191 70.9937ZM62.2015 61.7563H62.3466V60.5761H62.6991V60.4172H61.849V60.5761H62.2015V61.7563ZM63.0101 60.8711V60.5987C63.0101 60.6668 63.0309 60.7122 63.0516 60.7349L63.4663 61.7563H63.5285L63.9432 60.7349C63.964 60.7122 63.964 60.6668 63.9847 60.5987V61.7563H64.1298V60.4172H63.964L63.5907 61.3477C63.5907 61.3704 63.5493 61.4385 63.5285 61.5293H63.5078C63.5078 61.4839 63.4871 61.4385 63.4456 61.3704L63.0724 60.4399H62.8857V61.779H63.0309L63.0101 60.8711Z" fill="black"/>
</g>
<defs>
<clipPath id="clip0_1907_66">
<rect width="96" height="67" fill="white" transform="translate(4 16)"/>
</clipPath>
</defs>
</svg>
