<svg width="40" height="40" viewBox="0 0 40 40" fill="none" xmlns="http://www.w3.org/2000/svg">
<path d="M31.5294 14.2118C31.5294 18.8819 28.7623 22.9083 24.7793 24.7351C26.4612 23.3497 27.5322 21.248 27.5322 18.896C27.5322 14.7643 24.2259 11.4043 20.112 11.3205C20.0574 11.3167 20.0075 11.3167 19.9529 11.3167C19.8983 11.3167 19.8485 11.3167 19.7939 11.3205C18.2673 11.4033 17.0588 12.6664 17.0588 14.2108V28.6814C17.0588 33.4748 13.1699 37.3638 8.37646 37.3638V14.2118C8.37646 7.81932 13.5605 2.63531 19.9529 2.63531C26.3454 2.63531 31.5294 7.81932 31.5294 14.2118Z" fill="white"/>
</svg>
