<svg width="20" height="20" viewBox="0 0 20 20" fill="none" xmlns="http://www.w3.org/2000/svg">
<rect width="20" height="20" rx="10" fill="white"/>
<path d="M10.4913 13.5C6.73298 13.5 4.58932 10.8724 4.5 6.5H6.38257C6.44441 9.70921 7.83229 11.0686 8.93161 11.3488V6.5H10.7042V9.26777C11.7898 9.14865 12.9304 7.88739 13.3151 6.5H15.0878C14.9428 7.21954 14.6538 7.90083 14.2388 8.50125C13.8238 9.10167 13.2919 9.60832 12.6761 9.98949C13.3634 10.3378 13.9705 10.8307 14.4573 11.4359C14.944 12.041 15.2994 12.7445 15.5 13.5H13.5487C13.3687 12.8438 13.0027 12.2564 12.4967 11.8114C11.9907 11.3664 11.3672 11.0836 10.7042 10.9985V13.5H10.4913V13.5Z" fill="black"/>
</svg>
