<svg width="89" height="100" viewBox="0 0 89 100" fill="none" xmlns="http://www.w3.org/2000/svg">
<path d="M88.0943 29.1105C88.0937 27.4456 87.7376 25.9744 87.0175 24.7122C86.3102 23.4702 85.2509 22.4296 83.8301 21.6068C72.1017 14.8441 60.3619 8.10212 48.6374 1.33257C45.4765 -0.492268 42.4117 -0.425396 39.2743 1.42564C34.606 4.17841 11.2337 17.5689 4.2691 21.603C1.40086 23.2637 0.00517048 25.8049 0.00448109 29.1074C0 42.7075 0.00448109 56.3076 0 69.9078C0 71.5361 0.341597 72.979 1.02996 74.2224C1.73763 75.5015 2.81171 76.5708 4.2653 77.4122C11.2303 81.4462 34.6057 94.8357 39.2729 97.5895C42.4117 99.4416 45.4765 99.5078 48.6384 97.6826C60.3633 90.9127 72.1038 84.1707 83.8339 77.4081C85.2875 76.567 86.3615 75.4971 87.0692 74.2189C87.7565 72.9752 88.0988 71.5327 88.0988 69.904C88.0988 69.904 88.0988 42.711 88.0943 29.1105Z" fill="#4A4A4A"/>
<path d="M44.1843 49.375L1.03003 74.2223C1.7377 75.5015 2.81178 76.5707 4.26537 77.4121C11.2304 81.4462 34.6058 94.8356 39.273 97.5895C42.4118 99.4415 45.4765 99.5077 48.6385 97.6825C60.3634 90.9126 72.1038 84.1707 83.8339 77.408C85.2875 76.5669 86.3616 75.497 87.0693 74.2188L44.1843 49.375Z" fill="black"/>
<path d="M88.0945 29.1105C88.0938 27.4456 87.7378 25.9744 87.0177 24.7122L44.1843 49.3754L87.0694 74.219C87.7567 72.9753 88.0983 71.5328 88.099 69.9041C88.099 69.9041 88.099 42.711 88.0945 29.1105Z" fill="#231F20"/>
<path d="M69.5919 40.0864V44.7309H74.2364V40.0864H76.5586V44.7309H81.2031V47.0531H76.5586V51.6973H81.2031V54.0195H76.5586V58.664H74.2364V54.0195H69.5919V58.664H67.2696V54.0195H62.6255V51.6973H67.2696V47.0531H62.6255V44.7309H67.2696V40.0864H69.5919ZM74.2364 47.0528H69.5919V51.6973H74.2364V47.0528Z" fill="white"/>
<path d="M44.279 16.7613C56.3931 16.7613 66.9695 23.3403 72.6346 33.1194L72.5794 33.0253L58.3261 41.2319C55.5182 36.4775 50.3705 33.2686 44.4648 33.2025L44.2786 33.2014C35.2734 33.2014 27.9726 40.5022 27.9726 49.5074C27.9697 52.3458 28.7112 55.1353 30.1232 57.5975C32.9339 62.5043 38.2178 65.8138 44.279 65.8138C50.3777 65.8138 55.6916 62.4623 58.4878 57.5031L58.4199 57.622L72.6515 65.8665C67.0484 75.5629 56.6168 82.1215 44.6437 82.2522L44.279 82.2542C32.1266 82.2542 21.5202 75.6346 15.8692 65.8038C13.1106 61.0045 11.5322 55.4408 11.5322 49.5074C11.5322 31.4224 26.193 16.761 44.2786 16.761L44.279 16.7613Z" fill="white"/>
</svg>
