<svg width="89" height="100" viewBox="0 0 89 100" fill="none" xmlns="http://www.w3.org/2000/svg">
<path d="M88.1749 0L80.142 89.9895L44.0335 100L8.02445 90.0036L0 0H88.1749Z" fill="white"/>
<path d="M73.2648 84.2596L80.1295 7.35938H44.0874V92.3487L73.2648 84.2596Z" fill="#C8C8C8"/>
<path d="M18.396 40.7402L19.3854 51.7787H44.0876V40.7402H18.396Z" fill="#292929"/>
<path d="M44.0875 18.3975H44.0493H16.408L17.4114 29.4362H44.0875V18.3975Z" fill="#292929"/>
<path d="M44.0874 80.8931V69.4083L44.039 69.4212L31.7453 66.1016L30.9594 57.2979H24.9856H19.8784L21.4249 74.63L44.0366 80.9072L44.0874 80.8931Z" fill="#292929"/>
<path d="M57.6421 51.7783L56.3608 66.0945L44.0493 69.4174V80.9017L66.679 74.6299L66.845 72.7649L69.439 43.704L69.7083 40.7398L71.7011 18.3975H44.0493V29.4362H59.6038L58.5994 40.7398H44.0493V51.7783H57.6421Z" fill="#231F20"/>
</svg>
