<svg width="100" height="100" viewBox="0 0 100 100" fill="none" xmlns="http://www.w3.org/2000/svg">
<g id="figma">
<g id="figma_2">
<path id="Vector" d="M33.3334 100C42.5334 100 50.0001 92.5336 50.0001 83.3336V66.667H33.3334C24.1334 66.667 16.6667 74.1336 16.6667 83.3336C16.6667 92.5336 24.1334 100 33.3334 100Z" fill="white"/>
<path id="Vector_2" d="M16.6667 49.9996C16.6667 40.7997 24.1334 33.333 33.3334 33.333H50.0001V66.6663H33.3334C24.1334 66.6663 16.6667 59.1996 16.6667 49.9996Z" fill="white"/>
<path id="Vector_3" d="M16.6667 16.6667C16.6667 7.46666 24.1334 0 33.3334 0H50.0001V33.3333H33.3334C24.1334 33.3333 16.6667 25.8667 16.6667 16.6667Z" fill="white"/>
<path id="Vector_4" d="M50 0H66.6667C75.8667 0 83.3334 7.46666 83.3334 16.6667C83.3334 25.8667 75.8667 33.3333 66.6667 33.3333H50V0Z" fill="white"/>
<path id="Vector_5" d="M83.3334 49.9996C83.3334 59.1996 75.8667 66.6663 66.6667 66.6663C57.4667 66.6663 50 59.1996 50 49.9996C50 40.7997 57.4667 33.333 66.6667 33.333C75.8667 33.333 83.3334 40.7997 83.3334 49.9996Z" fill="white"/>
</g>
</g>
</svg>
