<svg width="100" height="100" viewBox="0 0 100 100" fill="none" xmlns="http://www.w3.org/2000/svg">
<path d="M1.36874 0.408193C1.03633 0.657092 0.586601 1.13226 0.391067 1.4943C0 2.12786 0 2.71616 0 29.6878V57.2251L0.410621 57.8361C0.840795 58.5149 9.71802 64.5563 10.7935 64.9184C11.6929 65.2125 12.7683 64.8505 13.4723 64.0585L14.0784 63.3571L14.1762 46.9976C14.2544 35.2088 14.3326 30.525 14.5086 30.2082C15.1539 28.8958 16.5813 28.1491 17.7154 28.5112C18.0282 28.6243 21.9975 31.1812 26.5339 34.2132C34.0033 39.1686 34.8832 39.7117 35.6849 39.7117C36.6235 39.7117 36.3888 39.8474 49.9589 30.7965C52.9114 28.828 53.498 28.5112 54.2606 28.5112C54.7885 28.5112 55.3947 28.6922 55.7662 28.9637C56.9981 29.8236 56.9981 29.8236 56.9981 39.6438L56.9785 48.5363L46.3806 55.5507L35.7827 62.5878V71.7292C35.7827 80.7348 35.7827 80.8932 36.2128 81.572C36.5061 82.0472 40.4364 84.7851 49.9784 91.0754C64.3306 100.556 64.2133 100.488 65.6211 99.6511C65.9926 99.4475 72.4843 95.1483 80.071 90.1025C87.6578 85.0566 95.0294 80.1465 96.4763 79.1961C97.9428 78.2232 99.292 77.1597 99.5071 76.7977C99.9177 76.1641 99.9177 75.9831 99.9764 58.3112C100.035 38.4672 100.094 39.4401 98.7054 38.4445C98.1775 38.0599 97.8255 37.992 97.0238 38.0825C96.1635 38.173 95.3227 38.6482 91.3142 41.3182C87.8337 43.6714 86.5237 44.667 86.1913 45.2327L85.7415 46.002V55.9806C85.7415 65.8913 85.7415 65.9819 85.3113 66.9774C84.8812 67.9278 84.5292 68.1767 75.0067 74.4897C66.2273 80.3049 65.0736 81.0063 64.311 81.0063C63.568 81.0063 62.8445 80.599 59.1098 78.1553C56.7048 76.594 54.4757 75.1006 54.1237 74.8291C53.2829 74.1729 52.8919 73.3131 52.8919 72.1138C52.8919 70.3942 53.3416 69.9416 57.878 66.9096C70.4312 58.5601 70.5681 58.447 70.9787 57.6777C71.3698 56.931 71.3698 56.501 71.3698 29.5294C71.3698 3.50812 71.3502 2.10523 71.0178 1.51693C70.1966 0.0687849 68.5932 -0.383759 67.2049 0.43082C66.8139 0.657092 60.0484 5.13727 52.1879 10.3642C44.3275 15.591 37.5425 20.0712 37.0927 20.3428C35.6849 21.18 35.3134 21.0442 31.2658 18.3742C20.4137 11.1787 8.32974 3.14609 6.25708 1.7432C3.57827 -0.0669784 2.44417 -0.383759 1.36874 0.408193Z" fill="white"/>
<path d="M96.4567 0.227265C95.8115 0.453537 87.7751 5.9972 87.1493 6.65339C86.1521 7.67162 86.1326 7.89789 86.1326 14.935C86.1326 20.637 86.1717 21.6552 86.465 22.3341C86.8951 23.3975 87.7555 23.9858 88.8896 23.9858C89.7108 23.9858 90.2583 23.6691 94.4428 20.7501C97.0825 18.94 99.2724 17.2656 99.5071 16.9035C99.8981 16.2926 99.9177 15.9532 99.9764 9.43654C100.035 1.5849 100.015 1.42651 98.4512 0.498792C97.5322 -0.0216342 97.2975 -0.0668886 96.4567 0.227265Z" fill="white"/>
</svg>
