<svg width="100" height="100" viewBox="0 0 100 100" fill="none" xmlns="http://www.w3.org/2000/svg">
<circle cx="50" cy="50" r="50" fill="black"/>
<path d="M65.7266 37.3347L57.3704 40.3307L50.0924 43.8486L48.0604 44.4387C47.542 44.9834 47.0029 45.5281 46.4016 46.0729C45.7588 46.6857 45.1575 47.2304 44.7013 47.6389C44.183 48.0928 43.4365 48.9099 43.0425 49.4319C42.462 50.2263 42.0058 51.0661 41.8192 51.7016C41.4667 52.8591 41.6326 54.0393 42.3168 55.1288C43.167 56.5132 44.888 57.9204 46.8785 58.8737C47.8945 59.373 49.6155 59.9858 50.9011 60.3489C53.0368 60.9391 57.1838 61.5973 59.4646 61.688C59.9208 61.7107 60.5428 61.7107 60.5636 61.688C60.6051 61.6426 60.9783 60.9164 61.3722 59.9858C62.7822 56.8537 63.7775 53.9031 64.3373 51.4065C64.6691 49.8859 64.9179 47.8659 65.1045 45.4601C65.146 44.7792 65.1667 42.5322 65.1253 41.7832C65.0631 40.5349 64.9594 39.5363 64.8142 38.5376C64.7935 38.4015 64.7728 38.2653 64.7935 38.2653C64.8142 38.2426 64.8972 38.2199 65.9339 37.9021L65.7266 37.3347ZM63.819 38.5603C63.9019 38.5603 64.0885 40.6938 64.1507 42.0329C64.1715 42.3052 64.1507 42.5095 64.1507 42.5095C64.1093 42.5095 63.0932 41.8513 62.3468 41.352C61.7247 40.9208 60.5221 40.0356 60.3355 39.8767C60.2733 39.8313 60.2733 39.8313 60.7917 39.6271C61.6625 39.2866 63.736 38.5603 63.819 38.5603ZM59.5476 40.1037C59.6098 40.1037 59.7549 40.1945 60.1074 40.4214C61.4137 41.3066 63.1762 42.396 63.9434 42.7592C64.1715 42.8727 64.1922 42.8273 63.6738 43.2358C62.5334 44.0983 61.082 44.938 59.3402 45.7778C59.0292 45.9367 58.7804 46.0502 58.7596 46.0502C58.7389 46.0502 58.7804 45.8686 58.8426 45.6643C59.2573 43.9394 59.5061 42.1918 59.5268 40.8073C59.4854 40.1037 59.4854 40.1037 59.5476 40.1037ZM58.6767 40.4668C58.7182 40.5122 58.6974 42.0556 58.6352 42.4868C58.5316 43.4855 58.3449 44.4387 58.0546 45.5054C57.9924 45.7551 57.9302 45.9821 57.9095 45.9821C57.8888 46.0275 57.0179 45.0969 56.7276 44.7338C56.23 44.121 55.8567 43.4855 55.5665 42.8727C55.4213 42.5549 55.1932 41.9421 55.214 41.9421C55.3176 41.8513 58.656 40.4441 58.6767 40.4668ZM54.5504 42.2372C54.5919 42.2599 54.6334 42.3733 54.6541 42.4868C54.8615 43.0996 55.3176 43.9848 55.7116 44.5295C56.147 45.1423 56.7069 45.8232 57.163 46.2544C57.3082 46.3906 57.4533 46.5268 57.4741 46.5495C57.5155 46.5949 57.5155 46.5949 56.4995 47.0034C55.2969 47.5027 54.0113 48.0021 52.5184 48.5241C52.1659 48.6603 51.8134 48.7737 51.4609 48.9099C51.3987 48.9326 51.4195 48.8872 51.5853 48.6149C52.3318 47.3439 53.4515 44.8699 54.0735 43.0996C54.1772 42.8046 54.2809 42.4868 54.3016 42.4187C54.3224 42.3279 54.3638 42.2825 54.4468 42.2372C54.4882 42.2599 54.5297 42.2372 54.5504 42.2372ZM53.2856 42.8046C53.3063 42.8273 52.9746 43.5536 52.6636 44.2344C52.0415 45.5508 51.378 46.8218 50.4864 48.3879C50.3412 48.6603 50.1961 48.9099 50.1754 48.9326C50.1339 48.978 50.1339 48.978 50.0302 48.751C49.8229 48.2971 49.6363 47.6843 49.5533 47.1396C49.4496 46.5949 49.4704 45.6643 49.5948 45.0742C49.6777 44.643 49.6777 44.643 49.8643 44.5522C50.6315 44.121 53.2441 42.7819 53.2856 42.8046ZM64.1715 43.3039V43.5989C64.1715 45.1423 64.0263 47.2531 63.7982 48.7964C63.7568 49.0688 63.736 49.2958 63.7153 49.2958C63.7153 49.2958 63.5287 49.2504 63.3213 49.1823C62.3675 48.8645 61.3515 48.3879 60.4184 47.8205C59.7964 47.4573 58.9048 46.8445 58.9463 46.8218C58.9463 46.8218 59.2158 46.663 59.5268 46.4814C60.7709 45.7778 61.9528 45.0061 62.9896 44.2571C63.3835 43.9848 63.9641 43.5082 64.0885 43.3947L64.1715 43.3039ZM48.5166 45.3466C48.5373 45.3466 48.5373 45.392 48.4958 45.6416C48.4751 45.8232 48.4336 46.1636 48.4336 46.3906C48.3922 47.3893 48.5373 48.1382 48.9935 49.1596C49.1179 49.4319 49.2216 49.6816 49.2216 49.6816C49.1801 49.727 44.9916 51.0661 43.6853 51.4519C43.2914 51.5654 42.9596 51.6789 42.9181 51.6789C42.8767 51.7016 42.8767 51.6789 42.8767 51.5654C43.0218 50.5441 43.7268 49.2277 44.7221 48.0928C45.3856 47.3439 45.904 46.9126 46.7956 46.3452C47.4383 45.9821 48.4129 45.3693 48.5166 45.3466C48.4958 45.3466 48.4958 45.3466 48.5166 45.3466ZM58.3657 47.2758C58.3657 47.2758 58.5316 47.3666 58.6974 47.48C60.0452 48.3425 61.9321 49.1369 63.5287 49.5454L63.6738 49.5908L63.4665 49.7043C62.6163 50.2263 59.8586 51.4746 57.0386 52.6321C56.6239 52.791 56.23 52.9726 56.147 52.9953C56.0641 53.0407 56.0019 53.0407 56.0019 53.0407C56.0019 53.0407 56.1056 52.791 56.2507 52.496C57.0386 50.8845 57.8266 48.9099 58.2413 47.5481C58.3242 47.3893 58.3657 47.2758 58.3657 47.2758ZM57.3704 47.6389C57.3704 47.6389 57.3289 47.7978 57.2667 47.9567C56.7069 49.4092 56.0019 50.998 55.0688 52.791C54.8407 53.2449 54.6334 53.6081 54.6334 53.6081C54.6334 53.6081 54.4468 53.4946 54.2187 53.3357C52.8709 52.4279 51.689 51.3384 50.9218 50.249L50.8182 50.0901L51.3987 49.9086C53.4515 49.2958 55.214 48.6376 56.9557 47.8205C57.1423 47.7297 57.3497 47.6389 57.3704 47.6389ZM63.6116 50.022C63.6116 50.1809 63.3006 51.6108 63.031 52.6321C62.803 53.4946 62.6163 54.1755 62.2638 55.3784C62.1187 55.9004 61.9736 56.3317 61.9736 56.3317C61.9736 56.3317 61.9321 56.3317 61.8906 56.309C60.0245 55.9458 58.3242 55.4238 56.7483 54.7202C56.3129 54.516 55.6701 54.2209 55.6287 54.1755C55.6079 54.1528 56.0019 53.9712 56.4788 53.7443C59.361 52.3598 62.3261 50.8164 63.3628 50.1355C63.4872 50.0674 63.5909 50.022 63.6116 50.022ZM49.2008 50.5668C49.2216 50.5895 48.4129 51.8378 47.2932 53.5627C46.8992 54.1755 46.4431 54.8791 46.2772 55.1288C46.1113 55.4011 45.8418 55.8096 45.6966 56.0593L45.4271 56.5132L45.1368 56.2409C44.805 55.9458 44.2244 55.2876 43.9549 54.9245C43.4158 54.1755 43.0425 53.4038 42.8974 52.7002C42.8352 52.3598 42.8352 52.2009 42.8974 52.1782C43.0011 52.1555 44.6806 51.7243 46.2565 51.3157C47.1273 51.0888 48.1433 50.8391 48.5166 50.7256C48.8898 50.6349 49.1801 50.5668 49.2008 50.5668ZM50.0095 50.9072L50.2168 51.1569C51.1292 52.269 52.0622 53.0861 53.1819 53.8124C53.3893 53.9258 53.5344 54.0393 53.5137 54.062C53.4722 54.1074 49.6155 55.6054 47.8116 56.2636C46.8163 56.6494 45.9869 56.9672 45.9662 56.9672L45.8418 56.8764L45.7381 56.7856L45.9247 56.4905C46.526 55.56 47.2725 54.516 48.8898 52.3825L50.0095 50.9072ZM55.0481 54.8564C55.0481 54.8564 55.3384 54.9699 55.6701 55.1061C56.4995 55.4465 57.1423 55.6508 58.0132 55.9004C59.0914 56.1955 60.6465 56.4905 61.5589 56.5813C61.704 56.604 61.7662 56.604 61.7455 56.6267C61.704 56.6494 60.7709 56.9899 60.0867 57.2395C59.0085 57.6027 55.6909 58.6921 52.9746 59.5319C52.4769 59.6907 52.0415 59.8269 52.0208 59.8269C51.9586 59.8496 51.7512 59.7815 51.7512 59.7588C51.7512 59.7361 51.8964 59.5319 52.083 59.3049C52.9953 58.1247 53.8869 56.7856 54.6541 55.5373C54.8615 55.1288 55.0481 54.8564 55.0481 54.8564ZM53.9284 54.8791C53.9284 54.8791 53.493 55.6735 52.705 57.0353C52.3733 57.6027 52 58.2609 51.8549 58.4878C51.7305 58.7148 51.5439 59.0552 51.4402 59.2595L51.2536 59.6227L51.1499 59.6C50.9218 59.5319 49.3252 58.9191 48.9105 58.7375C48.3922 58.5105 47.8531 58.2382 47.4384 57.9885C46.9407 57.6935 46.2979 57.2395 46.3601 57.2395C46.3809 57.2395 47.231 56.9672 48.2885 56.6721C51.0462 55.855 52.5806 55.3784 53.5966 55.0153C53.7625 54.9245 53.9284 54.8791 53.9284 54.8791ZM61.7869 56.8991C61.8284 56.9672 60.7917 60.0766 60.4184 61.0525C60.3355 61.2795 60.3148 61.3249 60.2526 61.3249C60.1489 61.3249 58.656 61.0979 57.7644 60.9391C56.1885 60.6667 53.5552 60.1674 52.8916 60.0085L52.7465 59.9631L53.6796 59.7361C55.7116 59.2368 56.6654 58.9645 57.6607 58.6467C58.9048 58.2382 60.1281 57.7162 61.3722 57.0807C61.5796 56.9899 61.7455 56.8991 61.7869 56.8991Z" fill="white"/>
<path d="M57.1007 16.0226C56.9555 15.9999 54.7162 16.8851 53.2647 17.5206C51.3156 18.3831 49.802 19.2228 48.8689 19.9491C48.5164 20.2215 48.081 20.6981 48.0188 20.8797C47.998 20.9478 47.9773 21.0386 47.9773 21.1067L48.8274 21.9918L50.8387 22.6954L55.6285 23.626L61.1025 24.6473L61.1647 24.1253H61.1233L60.3975 24.0118L60.2524 23.7394C59.5059 22.3096 58.6765 20.5165 58.1996 19.3136C57.8264 18.3831 57.4739 17.2936 57.2873 16.522C57.1836 16.0453 57.1629 16.0226 57.1007 16.0226ZM56.997 16.3631C57.0177 16.3631 57.0385 16.5674 57.0592 16.7943C57.1629 17.7703 57.3702 18.7008 57.6813 19.6995C57.9093 20.4712 57.9093 20.4258 57.6398 20.335C56.997 20.1307 54.1148 19.586 52.0206 19.2682C51.6889 19.2228 51.3986 19.1775 51.3986 19.1548C51.3778 19.1321 52.9122 18.2469 53.5757 17.9065C54.4466 17.4752 56.8311 16.4085 56.997 16.3631ZM50.9009 19.4725L51.1497 19.5633C52.4975 20.0626 55.8566 20.7662 57.7227 20.9251C57.9301 20.9478 58.1167 20.9705 58.1167 20.9705C58.1167 20.9705 57.9508 21.084 57.7227 21.1974C56.8311 21.6968 55.8358 22.2869 55.1516 22.7635C54.9442 22.8997 54.7576 23.0132 54.7369 23.0132C54.7162 23.0132 54.571 22.9905 54.4466 22.9678L54.1978 22.9224L53.5757 22.2415C52.456 21.0613 51.5852 20.1534 51.2534 19.7903L50.9009 19.4725ZM50.6521 19.6768L51.5437 20.9024C52.0206 21.5833 52.5183 22.2188 52.6219 22.3777C52.7256 22.5138 52.8085 22.65 52.8085 22.65C52.7878 22.6727 51.523 22.4004 50.8595 22.2415C50.1752 22.0599 49.8849 21.9918 49.4702 21.8329L49.1177 21.7195V21.6287C49.1177 21.1747 49.6568 20.4712 50.5692 19.7676L50.6521 19.6768ZM58.2204 21.3336C58.2411 21.3336 58.2826 21.4017 58.3448 21.5833C58.5521 22.1053 59.2364 23.4898 59.4023 23.7621C59.4437 23.8529 59.5474 23.8529 58.6558 23.6941C56.5201 23.3082 55.8358 23.1947 55.8358 23.172C55.8358 23.172 55.8981 23.1266 55.981 23.0586C56.6445 22.65 57.308 22.1507 57.9093 21.606C58.0545 21.4698 58.1789 21.3563 58.2204 21.3336Z" fill="white"/>
<path d="M48.0603 20.7664C48.0603 20.7664 47.9151 21.016 48.0603 21.3792C48.1432 21.6061 48.392 21.8785 48.6616 22.1508C48.6616 22.1508 51.4816 25.1468 51.8133 25.578C53.3684 27.5526 54.0527 29.4818 54.1149 32.1373C54.1564 33.8622 53.8661 35.3602 53.1196 37.1078C51.8133 40.2399 49.0348 43.7125 44.7634 47.5482L45.3855 47.3212C45.7794 46.9808 46.3393 46.6403 47.6249 45.8687C50.6107 44.0756 53.949 42.4415 58.0545 40.762C63.964 38.3334 73.6887 35.4737 79.2249 34.5431L79.8055 34.4523L79.7226 34.2935C79.2249 33.431 78.8724 32.909 78.4577 32.3416C77.2551 30.6847 75.7829 29.3683 73.979 28.2562C71.5115 26.7355 68.2976 25.5553 64.2336 24.6702C63.4664 24.5113 61.7868 24.1935 60.4183 23.9666C57.5154 23.4672 55.6493 23.1268 53.5965 22.741C52.8501 22.6048 51.7511 22.4005 51.0254 22.2189C50.6522 22.1281 49.9264 21.9466 49.3459 21.7196C48.8482 21.5607 48.2054 21.3565 48.0603 20.7664ZM49.6983 22.514C49.6983 22.514 49.802 22.5594 49.9472 22.6048C50.196 22.6956 50.507 22.809 50.8595 22.8998C51.1291 22.9906 51.4194 23.0587 51.6889 23.1495C52.0621 23.263 52.3939 23.3538 52.3939 23.3538C52.4354 23.3991 53.0781 25.6461 53.2855 26.4859C53.3684 26.8036 53.4306 27.0987 53.4306 27.0987C53.4306 27.0987 53.3477 26.9852 53.2648 26.8263C52.5183 25.3964 51.3571 23.9666 50.0094 22.7863C49.8228 22.6275 49.6983 22.514 49.6983 22.514ZM52.8086 23.4445C52.8501 23.4445 52.9745 23.4672 53.1404 23.5126C54.2186 23.785 56.1469 24.1708 57.3703 24.3978C57.5776 24.4432 57.7435 24.4659 57.7435 24.4886C57.7435 24.5113 57.6606 24.5567 57.5776 24.6021C57.3703 24.7155 56.5201 25.2603 56.2506 25.4645C55.5456 25.9865 54.9236 26.5313 54.4674 27.0306L54.1356 27.3937C54.1356 27.3937 54.0942 27.2802 54.0734 27.1214C53.8453 26.1681 53.3684 24.7382 52.933 23.7396C52.8501 23.6034 52.7879 23.4445 52.8086 23.4445C52.7879 23.4445 52.7879 23.4445 52.8086 23.4445ZM58.2619 24.5794C58.3034 24.6021 58.3656 24.829 58.49 25.351C58.7181 26.3497 58.8217 27.4845 58.801 28.5286C58.7803 28.8236 58.7803 29.096 58.7595 29.1187L58.7388 29.1868L58.407 29.0733C57.7228 28.8463 56.6238 28.4832 55.6908 28.1881C55.1516 28.0292 54.7162 27.8931 54.7162 27.8704C54.7162 27.825 55.5041 26.9625 55.8359 26.6447C56.4787 26.0319 58.2204 24.5567 58.2619 24.5794ZM58.6973 24.6475C58.7181 24.6248 61.3099 25.1241 62.4918 25.3737C63.3627 25.5553 64.6483 25.8504 64.7312 25.8958C64.7727 25.9185 64.6275 25.9865 64.2128 26.1908C62.554 27.0079 61.3099 27.7569 60.0658 28.642C59.7341 28.869 59.4645 29.0733 59.4645 29.0733C59.4645 29.0733 59.4438 28.869 59.4438 28.642C59.4438 27.3256 59.195 26.0092 58.7595 24.8744C58.7388 24.7609 58.6973 24.6702 58.6973 24.6475ZM65.4154 26.1C65.4362 26.1227 65.3532 26.6901 65.2703 27.0079C65.0422 28.0292 64.4202 29.5726 63.6737 31.0025C63.5493 31.2521 63.4249 31.4564 63.4042 31.4791C63.3834 31.4791 63.2175 31.3883 63.0309 31.2521C62.3052 30.7755 61.4551 30.3443 60.5635 29.9357C60.3146 29.8223 60.0866 29.7315 60.0866 29.7088C60.0451 29.6634 62.0771 28.1881 63.1553 27.4845C64.0055 26.9171 65.3947 26.0773 65.4154 26.1ZM65.8923 26.1908C65.9546 26.1908 67.095 26.5313 67.6963 26.7355C69.1892 27.2122 70.8895 27.8931 71.9884 28.4605L72.4446 28.6874L72.1128 28.7782C69.3966 29.4591 67.0742 30.2535 64.8349 31.2521C64.6483 31.3429 64.4824 31.411 64.4824 31.411C64.4616 31.411 64.5238 31.2521 64.6068 31.0479C65.291 29.4818 65.7265 27.8477 65.8301 26.4405C65.8716 26.3043 65.8923 26.1908 65.8923 26.1908ZM54.4467 29.0733C54.4674 29.0506 55.3383 29.2775 55.8152 29.4364C56.5409 29.6634 58.0545 30.2081 58.0545 30.2535C58.0545 30.2535 57.8887 30.4124 57.6813 30.6166C56.8519 31.3656 56.064 32.16 55.1102 33.1813C54.8199 33.4764 54.5918 33.726 54.5711 33.726C54.5503 33.726 54.5503 33.6807 54.5503 33.6353C54.6955 32.4777 54.654 30.9798 54.4674 29.4591C54.4674 29.2321 54.4467 29.0733 54.4467 29.0733ZM72.9008 29.096C72.9215 29.1187 72.4861 29.8223 72.2372 30.2308C71.864 30.8209 71.3042 31.6153 70.0393 33.3402C69.3758 34.2481 68.6294 35.2921 68.3805 35.6325C68.1317 35.973 67.9244 36.2681 67.9036 36.2681C67.9036 36.2681 67.8207 36.1546 67.717 35.9957C67.012 34.8382 66.1619 33.8168 65.1666 32.909C64.98 32.7274 64.7727 32.5458 64.6897 32.5004C64.6275 32.455 64.5653 32.387 64.5653 32.387C64.5653 32.3643 65.6435 31.8649 66.4522 31.5018C67.8829 30.8663 69.832 30.0946 71.2834 29.618C72.0714 29.3229 72.9008 29.0733 72.9008 29.096ZM73.3984 29.2321C73.4191 29.2321 73.585 29.3002 73.7509 29.4364C75.2853 30.3897 76.7989 31.638 77.9808 32.909C78.3126 33.2721 79.142 34.2027 79.1213 34.2254C79.1213 34.2254 78.831 34.2481 78.4992 34.2708C75.8451 34.4977 72.4446 35.1105 69.1685 35.973C68.9404 36.0184 68.7538 36.0865 68.733 36.0865C68.7123 36.0865 68.9611 35.8141 69.2722 35.4964C71.2005 33.4764 72.0714 32.1827 73.1081 29.913C73.2533 29.5272 73.3777 29.2548 73.3984 29.2321C73.3777 29.2321 73.3777 29.2321 73.3984 29.2321ZM59.3194 30.7982C59.4023 30.8209 60.2317 31.2521 60.8538 31.5699C61.4136 31.8876 62.2845 32.387 62.3259 32.4096C62.3259 32.4096 62.0356 32.5912 61.6624 32.7955C60.4805 33.4537 59.4645 34.0665 58.3863 34.7701C58.0753 34.9744 57.8265 35.1332 57.8265 35.1332C57.8057 35.1332 57.8057 35.1105 57.9716 34.7701C58.5314 33.6353 58.9876 32.2735 59.2572 30.9571C59.2779 30.8663 59.2986 30.7982 59.3194 30.7982ZM58.5107 30.9798C58.5314 31.0025 58.3241 31.8422 58.1789 32.3189C57.9301 33.204 57.474 34.2935 57.0593 35.1332C56.9556 35.3375 56.8104 35.6099 56.7275 35.7687L56.5616 36.0411L56.2091 35.6779C55.7944 35.2467 55.4627 34.9744 55.0272 34.7247C54.8614 34.6339 54.7162 34.5431 54.7162 34.5204C54.7162 34.475 55.7944 33.3856 56.6238 32.6139C57.2251 32.0465 58.49 30.9571 58.5107 30.9798ZM63.5286 33.2267L63.8396 33.4537C64.5446 33.953 65.374 34.6339 66.0168 35.224C66.3693 35.5418 67.0742 36.2227 67.2194 36.4042L67.3023 36.495L66.784 36.6539C63.8811 37.5391 61.6624 38.3107 59.0498 39.3548C58.7595 39.4683 58.5107 39.559 58.49 39.559C58.4485 39.559 58.4278 39.6044 59.0705 38.9462C60.7293 37.2667 62.2223 35.4056 63.3212 33.6126L63.5286 33.2267ZM62.2015 33.5899C62.2223 33.6126 61.3514 34.929 60.833 35.7006C60.211 36.6085 59.112 38.1065 58.3656 39.0824C58.0545 39.491 57.785 39.8314 57.7642 39.8314C57.7435 39.8314 57.7435 39.7406 57.7435 39.5817C57.7435 38.742 57.5569 37.8568 57.2044 37.0851C57.0593 36.7674 57.0385 36.6993 57.0593 36.6539C57.1837 36.5404 59.0083 35.3829 60.1902 34.702C60.9574 34.2481 62.1808 33.5672 62.2015 33.5899ZM54.2186 35.7233C54.2393 35.7233 54.3845 35.8141 54.5503 35.9049C54.9443 36.1546 55.3175 36.4269 55.6285 36.6993C55.6493 36.722 55.4834 36.8582 55.2553 37.0397C54.654 37.5164 53.7417 38.2653 53.2233 38.7193C52.6634 39.1959 52.6427 39.2186 52.7049 39.1051C53.1196 38.4015 53.327 38.0157 53.555 37.5164C53.7417 37.0624 53.949 36.5404 54.0942 36.0638C54.1356 35.8822 54.1978 35.7233 54.2186 35.7233ZM56.3543 37.5617C56.3957 37.5617 56.4165 37.6071 56.6031 37.9022C56.9556 38.4923 57.2459 39.2867 57.3081 39.9222L57.3288 40.0584L56.4579 40.4215C54.9028 41.0797 53.4721 41.7379 52.5183 42.2145C52.2487 42.3507 51.7718 42.6004 51.4608 42.7592C51.1498 42.9408 50.901 43.0543 50.901 43.0543C50.901 43.0543 51.0876 42.8954 51.3364 42.6912C53.2233 41.1932 54.8614 39.5363 56.0847 37.9022C56.2091 37.7206 56.3335 37.5617 56.3543 37.5617ZM55.3797 37.8114C55.4005 37.8341 54.6747 38.742 54.1978 39.2867C52.9745 40.6485 51.7718 41.7152 50.2789 42.7592C50.0923 42.8954 49.9264 43.0089 49.9057 43.0316C49.8642 43.0543 49.9264 42.9862 50.5692 42.2145C50.9839 41.7152 51.2949 41.3067 51.6682 40.8073C51.917 40.4669 51.9585 40.4215 52.2902 40.1491C53.2026 39.3775 55.3383 37.7887 55.3797 37.8114Z" fill="white"/>
<path d="M28.0095 66.4542C27.8851 66.4542 27.7815 66.4769 27.657 66.4769C25.2933 66.6131 23.7174 67.7479 22.7843 69.9722C21.9964 71.9694 22.0793 74.6022 22.7843 76.5995C23.6137 78.5741 24.9615 79.6182 27.2009 80.004C27.6778 80.0948 27.9888 80.3671 28.9219 81.5474L30.0623 82.9999H32.1151L30.7466 81.502C30.0001 80.6849 29.378 79.9586 29.378 79.8905C29.378 79.8224 29.6683 79.6862 30.0208 79.5728C31.182 79.1869 32.1358 78.211 32.7993 76.713C33.3384 75.5101 33.4214 75.1469 33.5043 73.649C33.7117 69.2005 31.576 66.4315 28.0095 66.4542ZM29.8135 78.0748C28.8182 78.5968 27.3668 78.7103 26.4129 78.3245C25.4384 77.9386 24.4846 76.8265 24.0492 75.5555C23.5723 74.171 23.6345 71.629 24.1943 70.4942C25.0652 68.6785 26.2263 67.8387 27.9059 67.8387C30.3941 67.8387 31.8248 69.5182 32.0114 72.6503C32.1565 75.2831 31.3479 77.2577 29.8135 78.0748ZM65.291 70.2445C64.4201 70.2445 63.7773 70.6303 63.3212 71.3793L62.9687 71.9694V70.4261H61.4758V79.7089H62.9687V76.7357C62.9687 74.0121 62.9894 73.6944 63.3419 72.9681C63.8188 71.9467 64.6482 71.4474 65.4361 71.6744L65.9752 71.8333V70.2218L65.291 70.2445ZM56.5408 70.1537C56.2506 70.1537 55.9395 70.1991 55.6285 70.2672C53.6379 70.8346 52.5183 72.9227 52.5805 75.0789C52.5805 76.8719 52.8915 77.7797 53.7002 78.733C55.3175 80.1856 56.7897 80.299 58.7802 79.5274C59.112 79.3685 59.4852 79.1869 59.4852 79.1869V77.7343L58.7802 78.1429C57.1836 78.9146 55.9603 78.9146 54.9857 78.0067C54.3637 77.3258 54.0941 76.486 53.9697 75.5555H59.9828V74.3072C59.9828 71.7425 58.5729 70.131 56.5408 70.1537ZM54.1149 74.2391C54.1149 74.2391 54.3429 72.6503 55.1516 72.0148C55.5456 71.7198 56.0017 71.5609 56.4579 71.5609C56.9141 71.5609 57.3495 71.7198 57.7227 72.0375C58.4692 72.673 58.6143 74.2391 58.6143 74.2391H54.1149ZM18.1604 72.5595C16.5431 71.4928 15.8174 70.7211 15.9211 69.8133C16.1699 67.294 19.0106 67.6344 20.5864 68.5877L20.6072 66.8854C20.6072 66.8854 19.7363 66.4769 18.4922 66.4542C16.5846 66.4315 15.3405 67.1124 14.7599 68.5196C13.9098 70.585 14.6562 72.151 17.3932 73.8759C18.9276 74.8519 19.6119 75.6917 19.6119 76.6222C19.6119 78.5287 17.5177 79.1869 15.3405 78.0067C14.8843 77.757 14.5111 77.5528 14.4903 77.5528C14.4074 78.0975 14.4489 79.3912 14.4489 79.3912C14.4489 79.3912 15.1124 79.6862 16.1077 79.9132C18.5959 80.4579 20.8352 79.1869 21.0633 77.1215C21.2292 75.1696 20.5864 74.1483 18.1604 72.5595ZM78.4992 70.1537C78.2089 70.1537 77.8979 70.1991 77.5868 70.2672C75.5963 70.8346 74.4766 72.9227 74.5388 75.0789C74.5388 76.8719 74.8498 77.7797 75.6585 78.7103C77.2758 80.1629 78.748 80.299 80.7593 79.5047C81.091 79.3458 81.4643 79.1642 81.4643 79.1642V77.7116L80.7593 78.1202C79.1419 78.8919 77.9393 78.8919 76.9648 77.984C76.3427 77.3031 76.0732 76.486 75.9488 75.5328H81.9412V74.2845C81.9412 71.7198 80.5312 70.1083 78.4992 70.1537ZM76.0524 74.2164C76.0524 74.2164 76.2805 72.6276 77.0892 71.9921C77.4831 71.6744 77.9393 71.5382 78.3748 71.5382C78.8102 71.5382 79.2664 71.6971 79.6396 72.0148C80.386 72.6503 80.5312 74.2164 80.5312 74.2164H76.0524ZM48.7238 72.5822C47.1064 71.5155 46.4014 70.7438 46.4844 69.836C46.7332 67.3167 49.5739 67.6571 51.1498 68.6104L51.1705 66.9081C51.1705 66.9081 50.2996 66.4996 49.0555 66.4769C47.1479 66.4542 45.9038 67.1351 45.3232 68.5423C44.4731 70.6076 45.2403 72.1737 47.9566 73.8986C49.491 74.8746 50.1545 75.7144 50.1545 76.6222C50.1545 78.5287 48.0602 79.2096 45.8831 78.0067C45.4476 77.757 45.0537 77.5528 45.0329 77.5528C44.95 78.0975 44.9915 79.3912 44.9915 79.3912C44.9915 79.3912 45.655 79.6862 46.6503 79.9132C49.1385 80.4579 51.3778 79.1869 51.6059 77.1215C51.7925 75.1923 51.1498 74.171 48.7238 72.5822ZM87.2493 70.2218C86.3784 70.2218 85.7149 70.6076 85.2795 71.3566L84.927 71.9467V70.4034H83.4341V79.6862H84.927V76.7357C84.927 74.0121 84.9477 73.6944 85.3002 72.9681C85.7771 71.9467 86.6065 71.4474 87.3945 71.6971L87.9336 71.856V70.2445L87.2493 70.2218ZM36.8634 72.5369V66.6131H35.3705V79.7089H41.6946V78.1656H36.8841L36.8634 72.5369ZM71.6359 74.3753L70.3918 77.8932L69.2099 74.3526L68.0073 70.4261H66.4729C67.4682 73.5128 68.5464 76.6676 69.6453 79.7089C70.1222 79.7316 70.5991 79.7089 71.076 79.7089L72.7556 75.1016L74.4558 70.4034H72.9837C72.9629 70.4261 72.3201 72.2872 71.6359 74.3753ZM40.3468 63.0497C40.5957 63.0497 40.7823 62.9589 40.9482 62.7774C41.114 62.5958 41.197 62.3915 41.197 62.1192C41.197 61.8468 41.114 61.6425 40.9482 61.461C40.7823 61.3021 40.5957 61.2113 40.3468 61.2113C40.098 61.2113 39.8907 61.3021 39.7455 61.4837C39.5796 61.6652 39.4967 61.8922 39.4967 62.1419C39.4967 62.4142 39.5796 62.6412 39.7455 62.8001C39.8907 62.9589 40.098 63.0497 40.3468 63.0497ZM39.8077 61.5291C39.9529 61.3702 40.1188 61.3021 40.3468 61.3021C40.5542 61.3021 40.7408 61.3702 40.8859 61.5291C41.0311 61.6879 41.114 61.8695 41.114 62.1192C41.114 62.3461 41.0311 62.5504 40.8859 62.7093C40.7408 62.8682 40.5542 62.9362 40.3468 62.9362C40.1395 62.9362 39.9529 62.8682 39.8077 62.7093C39.6626 62.5504 39.5796 62.3461 39.5796 62.1192C39.6004 61.8922 39.6626 61.6879 39.8077 61.5291ZM40.1602 62.21H40.2639C40.3261 62.21 40.409 62.278 40.4505 62.4142L40.5749 62.7093H40.7615L40.6164 62.3915C40.5542 62.2553 40.492 62.1873 40.4298 62.1646C40.5127 62.1419 40.5749 62.1192 40.6371 62.0511C40.6786 62.0057 40.6993 61.9149 40.6993 61.8468C40.6993 61.756 40.6786 61.6879 40.6164 61.6198C40.5542 61.5518 40.4505 61.5291 40.3054 61.5291H39.9943V62.7093H40.1395L40.1602 62.21ZM40.1602 61.6652H40.3054C40.409 61.6652 40.4712 61.6879 40.5127 61.7106C40.5542 61.7333 40.5542 61.7787 40.5542 61.8695C40.5542 62.0057 40.4713 62.0738 40.3261 62.0738H40.1602V61.6652ZM15.3405 62.0965C15.3405 61.6879 15.3197 61.3702 15.3197 61.1886C15.3612 61.3929 15.4027 61.5518 15.4442 61.6652L16.8956 65.1832H17.1444L18.5959 61.6198C18.6373 61.5291 18.6788 61.3702 18.7203 61.1659H18.741C18.7203 61.5291 18.6995 61.8241 18.6995 62.0738V65.1832H19.1972V60.5531H18.5751L17.2274 63.7987C17.1859 63.9349 17.103 64.1165 17.02 64.3661H16.9993C16.9785 64.2299 16.8956 64.0484 16.8127 63.8214L15.5064 60.5758H14.8428V65.2059H15.3197L15.3405 62.0965ZM20.2547 62.1192H20.6901V65.0016H20.2547V62.1192ZM20.462 61.0524C20.545 61.0524 20.6279 61.0297 20.6901 60.9616C20.7523 60.8936 20.7938 60.8255 20.7938 60.712C20.7938 60.6212 20.773 60.5304 20.6901 60.4623C20.6279 60.3942 20.545 60.3715 20.462 60.3715C20.3791 60.3715 20.2961 60.3942 20.2339 60.4623C20.1717 60.5304 20.1303 60.6212 20.1303 60.712C20.1303 60.8255 20.151 60.8936 20.2339 60.9616C20.2961 61.0297 20.3791 61.0524 20.462 61.0524ZM23.7174 65.047V64.5477C23.4893 64.7293 23.2405 64.8427 22.9709 64.8427C22.6599 64.8427 22.4111 64.7293 22.2245 64.5023C22.0379 64.2753 21.9342 63.9803 21.9342 63.5944C21.9342 63.1859 22.0379 62.8682 22.2245 62.6412C22.4111 62.4142 22.6807 62.3007 22.9709 62.3007C23.2198 62.3007 23.4686 62.3915 23.6967 62.5504V61.983C23.4893 61.8695 23.2612 61.8241 22.9917 61.8241C22.5148 61.8241 22.1208 61.983 21.8513 62.3234C21.5817 62.6412 21.4366 63.0951 21.4366 63.6398C21.4366 64.1165 21.561 64.525 21.8305 64.82C22.1001 65.1378 22.4526 65.2967 22.8673 65.2967C23.2198 65.274 23.4893 65.2059 23.7174 65.047ZM24.9408 63.5263C24.9408 63.1405 25.0237 62.8455 25.1689 62.6185C25.314 62.4369 25.4591 62.3234 25.6665 62.3234C25.8324 62.3234 25.9568 62.3461 26.0397 62.4369V61.8922C25.9775 61.8695 25.8738 61.8468 25.7494 61.8468C25.5835 61.8468 25.4177 61.9149 25.2933 62.0284C25.1481 62.1646 25.0237 62.3461 24.9615 62.5958H24.9408V61.9149H24.4639V65.2286H24.9408V63.5263ZM27.7192 65.274C28.1754 65.274 28.5486 65.1151 28.8182 64.7974C29.0878 64.4796 29.2329 64.0484 29.2329 63.5263C29.2329 62.9816 29.1085 62.5731 28.8597 62.2554C28.6109 61.9376 28.2584 61.8014 27.8022 61.8014C27.346 61.8014 26.9728 61.9603 26.7032 62.2327C26.4129 62.5504 26.2678 63.0043 26.2678 63.5717C26.2678 64.0711 26.3922 64.4796 26.6618 64.7974C26.9106 65.1151 27.2631 65.274 27.7192 65.274ZM27.035 62.5958C27.2216 62.3915 27.4704 62.278 27.7607 62.278C28.0717 62.278 28.2998 62.3915 28.4864 62.5958C28.6523 62.8228 28.756 63.1405 28.756 63.549C28.756 63.9576 28.6731 64.2753 28.5072 64.4796C28.3413 64.7066 28.0925 64.82 27.7815 64.82C27.4704 64.82 27.2216 64.7066 27.035 64.4796C26.8484 64.2526 26.7654 63.9576 26.7654 63.549C26.7447 63.1405 26.8276 62.8228 27.035 62.5958ZM31.3271 65.0016C31.5137 64.82 31.6174 64.5931 31.6174 64.3207C31.6174 64.0711 31.5345 63.8668 31.3893 63.7079C31.2649 63.5717 31.099 63.4583 30.8295 63.3448C30.6014 63.2313 30.4563 63.1405 30.3733 63.0724C30.2904 62.9816 30.2489 62.8908 30.2489 62.732C30.2489 62.5958 30.2904 62.4823 30.3941 62.4142C30.4977 62.3234 30.6221 62.278 30.788 62.278C31.0576 62.278 31.2649 62.3461 31.4723 62.505V61.983C31.2857 61.8695 31.0576 61.8241 30.8295 61.8241C30.5185 61.8241 30.2489 61.9149 30.0623 62.0965C29.855 62.278 29.772 62.505 29.772 62.7774C29.772 63.027 29.8342 63.2313 29.9586 63.3675C30.0623 63.5037 30.2489 63.6171 30.4977 63.7306C30.7466 63.8441 30.9124 63.9576 30.9954 64.0484C31.0783 64.1392 31.1198 64.2299 31.1198 64.3661C31.1198 64.6839 30.9332 64.8427 30.5392 64.8427C30.2489 64.8427 29.9794 64.7293 29.7513 64.525V65.0924C29.9586 65.2286 30.2074 65.2967 30.4977 65.2967C30.8502 65.274 31.1405 65.1832 31.3271 65.0016ZM33.6287 61.8241C33.1725 61.8241 32.7993 61.983 32.5298 62.2554C32.2395 62.5731 32.0943 63.027 32.0943 63.5944C32.0943 64.0938 32.2187 64.5023 32.4883 64.82C32.7578 65.1378 33.1103 65.2967 33.5665 65.2967C34.0227 65.2967 34.3959 65.1378 34.6655 64.82C34.935 64.5023 35.0802 64.0711 35.0802 63.549C35.0802 63.0043 34.9557 62.5958 34.7069 62.278C34.4374 61.9603 34.0849 61.8241 33.6287 61.8241ZM34.5825 63.549C34.5825 63.9576 34.4996 64.2753 34.3337 64.4796C34.1678 64.7066 33.919 64.82 33.608 64.82C33.297 64.82 33.0481 64.7066 32.8615 64.4796C32.6749 64.2526 32.592 63.9576 32.592 63.549C32.592 63.1178 32.6956 62.8001 32.8823 62.5731C33.0689 62.3688 33.3177 62.2554 33.608 62.2554C33.8983 62.2554 34.1471 62.3688 34.313 62.5731C34.4996 62.8001 34.5825 63.1178 34.5825 63.549ZM35.8888 65.2059H36.3657V62.3461H37.0707V61.8922H36.3657V61.3929C36.3657 60.939 36.5316 60.6893 36.8634 60.6893C36.9878 60.6893 37.0915 60.712 37.1744 60.7801V60.3035C37.0915 60.2581 36.967 60.2581 36.8219 60.2581C36.5523 60.2581 36.345 60.3488 36.1791 60.5304C35.9718 60.7347 35.8681 61.007 35.8681 61.3929V61.9376H35.3497V62.3915H35.8681L35.8888 65.2059ZM37.8794 64.298C37.8794 64.9335 38.1489 65.274 38.6673 65.274C38.8539 65.274 38.9991 65.2513 39.1235 65.1605V64.7066C39.0405 64.7747 38.9369 64.82 38.8125 64.82C38.6466 64.82 38.5429 64.7747 38.46 64.6839C38.3978 64.5931 38.3563 64.4342 38.3563 64.2072V62.3461H39.1235V61.8922H38.3563V60.9163C38.1904 60.9843 38.0245 61.0297 37.8794 61.0751V61.8695H37.361V62.3234H37.8794V64.298ZM89.8205 70.4034C89.6546 70.2445 89.468 70.1537 89.2191 70.1537C88.9703 70.1537 88.763 70.2445 88.6178 70.4261C88.4519 70.6077 88.369 70.8346 88.369 71.0843C88.369 71.3566 88.4519 71.5609 88.6178 71.7425C88.7837 71.9014 88.991 71.9921 89.2191 71.9921C89.468 71.9921 89.6546 71.9013 89.8205 71.7198C89.9863 71.5382 90.0693 71.3339 90.0693 71.0616C90.09 70.7892 89.9863 70.5623 89.8205 70.4034ZM89.7582 71.6517C89.6131 71.8106 89.4472 71.8787 89.2191 71.8787C89.0118 71.8787 88.8252 71.8106 88.68 71.6517C88.5349 71.4928 88.4519 71.2885 88.4519 71.0616C88.4519 70.8346 88.5141 70.6303 88.6593 70.4715C88.8044 70.3126 88.9703 70.2445 89.1984 70.2445C89.4058 70.2445 89.5924 70.3126 89.7375 70.4715C89.8827 70.6303 89.9656 70.8346 89.9656 71.0616C89.9656 71.2885 89.9034 71.4928 89.7582 71.6517ZM89.3228 71.107C89.4057 71.0843 89.468 71.0389 89.5302 70.9935C89.5716 70.9481 89.5924 70.8573 89.5924 70.7892C89.5924 70.6984 89.5716 70.6303 89.5094 70.5623C89.4472 70.4942 89.3435 70.4715 89.1984 70.4715H88.8874V71.6517H89.0325V71.1524H89.1362C89.1984 71.1524 89.2606 71.2205 89.3228 71.3566L89.4472 71.6517H89.6338L89.4887 71.3339C89.4265 71.1978 89.3643 71.1297 89.3228 71.107ZM89.2191 70.9935H89.0533V70.6077H89.1984C89.3021 70.6077 89.3643 70.6304 89.4058 70.653C89.4472 70.6757 89.4472 70.7211 89.4472 70.8119C89.4265 70.9481 89.3643 70.9935 89.2191 70.9935ZM62.2015 61.756H62.3466V60.5758H62.6991V60.4169H61.849V60.5758H62.2015V61.756ZM63.0101 60.8709V60.5985C63.0101 60.6666 63.0309 60.712 63.0516 60.7347L63.4663 61.756H63.5285L63.9432 60.7347C63.964 60.712 63.964 60.6666 63.9847 60.5985V61.756H64.1298V60.4169H63.964L63.5907 61.3475C63.5907 61.3702 63.5493 61.4383 63.5285 61.5291H63.5078C63.5078 61.4837 63.4871 61.4383 63.4456 61.3702L63.0724 60.4396H62.8857V61.7787H63.0309L63.0101 60.8709Z" fill="white"/>
</svg>
